<?xml version="1.0" encoding="UTF-8"?>
<svg width="866px" height="866px" viewBox="0 0 866 866" version="1.1" xmlns="http://www.w3.org/2000/svg" xmlns:xlink="http://www.w3.org/1999/xlink">
    <title>Artboard</title>
    <defs>
        <linearGradient x1="50%" y1="0%" x2="50%" y2="100%" id="linearGradient-1">
            <stop stop-color="#E20074" offset="0%"></stop>
            <stop stop-color="#E20074" offset="100%"></stop>
        </linearGradient>
        <rect id="path-2" x="167" y="167" width="532" height="532" rx="150"></rect>
        <filter x="-18.8%" y="-9.4%" width="132.0%" height="133.8%" filterUnits="objectBoundingBox" id="filter-3">
            <feMorphology radius="10" operator="dilate" in="SourceAlpha" result="shadowSpreadOuter1"></feMorphology>
            <feOffset dx="-15" dy="45" in="shadowSpreadOuter1" result="shadowOffsetOuter1"></feOffset>
            <feGaussianBlur stdDeviation="17.5" in="shadowOffsetOuter1" result="shadowBlurOuter1"></feGaussianBlur>
            <feComposite in="shadowBlurOuter1" in2="SourceAlpha" operator="out" result="shadowBlurOuter1"></feComposite>
            <feColorMatrix values="0 0 0 0 0   0 0 0 0 0   0 0 0 0 0  0 0 0 0.0826706253 0" type="matrix" in="shadowBlurOuter1"></feColorMatrix>
        </filter>
    </defs>
    <g id="Artboard" stroke="none" stroke-width="1" fill="none" fill-rule="evenodd">
        <g id="Rectangle" transform="translate(433.000000, 433.000000) rotate(-45.000000) translate(-433.000000, -433.000000) ">
            <use fill="black" fill-opacity="1" filter="url(#filter-3)" xlink:href="#path-2"></use>
            <rect stroke="url(#linearGradient-1)" stroke-width="10" fill="#FFFFFF" fill-rule="evenodd" x="162" y="162" width="542" height="542" rx="150"></rect>
        </g>
        <path d="M564.678517,291 L568,405.249295 L550.364846,408.058767 C545.584856,342.982983 513.622882,307.395816 458.759769,306.454679 L458.759769,545.708458 C458.759769,589.247536 466.402072,596.286704 514.095726,596.750304 L514.095726,615 L351.918475,615 L351.918475,596.750304 C399.611077,596.286704 407.263899,589.247536 407.263899,545.708458 L407.263899,306.454679 C352.863112,307.395816 320.43776,342.982983 315.657245,408.058767 L298,405.249295 L301.37145,291 L564.678517,291 Z M568,449 L568,515 L501,515 L501,449 L568,449 Z M367,449 L367,515 L300,515 L300,449 L367,449 Z" id="Combined-Shape" fill="#E20074" fill-rule="nonzero"></path>
    </g>
</svg>