<?xml version="1.0" encoding="UTF-8"?>
<svg width="907px" height="874px" viewBox="0 0 907 874" version="1.1" xmlns="http://www.w3.org/2000/svg" xmlns:xlink="http://www.w3.org/1999/xlink">
    <title>Group</title>
    <g id="Page-1" stroke="none" stroke-width="1" fill="none" fill-rule="evenodd">
        <g id="Group" fill-rule="nonzero">
            <path d="M683,692 L683,696.255873 C683,699.556345 682.479815,700.511745 680.225678,700.511745 C672.596294,700.511745 666.787558,707.460109 657.51092,728.044636 C649.448048,746.110381 647.800794,749.931981 647.800794,750.453108 C647.800794,750.800527 645.980146,755.056399 643.726009,760.007108 C642.223252,763.307581 639.718656,769.001379 637.265436,774.720912 L636.775789,775.86446 C635.717724,778.339851 634.682491,780.790436 633.755791,783.023563 C633.069435,784.652085 632.34545,786.367312 631.611275,788.100916 L631.169765,789.142737 C628.516008,795.400335 625.801291,801.719003 624.305758,804.910908 C622.311714,809.079926 619.62409,815.420308 618.236929,818.981344 C605.145599,851.986071 596.129054,866.403925 585.29186,871.354635 C578.962938,874.220834 565.784911,874.915671 559.976175,872.657453 C555.5546,871.007216 555.467902,868.748998 559.109199,858.587016 C560.583058,854.331144 561.883521,850.683253 561.883521,850.509544 C561.883521,849.119871 566.825281,850.509544 570.639974,852.941471 C576.448709,856.502507 579.829914,856.502507 585.465255,852.941471 C590.667108,849.814707 599.423561,834.702017 604.885506,819.763035 L604.885506,819.763035 L608.526803,809.774762 L587.979484,759.833399 C576.535407,732.387363 566.391794,708.415509 565.264725,706.678418 C564.137657,704.941327 560.756453,702.856818 557.635341,701.988273 C552.69358,700.685454 552,699.990618 552,696.342727 L552,692.086855 L609.827267,692.086855 L609.827267,696.169018 C609.827267,699.990618 609.393779,700.251182 602.891463,701.119727 C594.13501,702.248836 592.054269,704.507054 594.13501,710.673727 C595.656552,714.973027 601.391595,729.05128 607.303078,743.23682 L608.091967,745.128012 C615.063461,761.824158 622.030814,778.072854 622.398412,778.072854 C622.831899,778.072854 624.652548,774.164399 626.473197,769.21369 C628.380543,764.349836 630.894772,757.922599 632.281932,754.795836 C633.797406,751.280832 635.397383,747.452284 636.995044,743.537762 L637.499391,742.299004 C637.835435,741.471615 638.170972,740.641476 638.505191,739.810713 L639.00543,738.564363 L639.00543,738.564363 L639.503085,737.318669 C645.374312,722.588103 650.575116,708.329523 650.575116,706.417854 C650.575116,704.159636 649.274653,703.030527 645.373263,702.075127 C642.425546,701.206582 638.957644,700.511745 637.657181,700.511745 C635.836532,700.511745 635.142952,699.382636 635.142952,696.255873 L635.142952,696.255873 L635.142952,692 L683,692 Z M822.94185,630.000518 C862.102363,630.017406 894.096907,630.444695 894.351925,630.955399 C894.785629,631.737089 895.219333,646.676056 895.479555,664.568075 L895.479555,664.568075 L896,697.051643 L890.101627,697.485915 C884.289995,697.920188 884.029773,697.833333 884.029773,694.2723 C884.029773,688.366197 879.952956,673.948357 876.309843,666.913146 C869.717544,653.798122 856.446205,644.244131 842.220717,641.985915 L842.220717,641.985915 L836.148863,641.030516 L836.322345,713.553991 L836.322345,713.553991 L836.322766,716.659282 C836.336605,766.774756 836.69533,787.364648 837.970419,790.85446 C840.485902,798.237089 845.950571,801.450704 856.96665,802.319249 L856.96665,802.319249 L866.421395,803.014085 L866.855098,809.093897 L867.288802,815 L821.055968,814.739437 L774.823133,814.305164 L774.389429,810.396714 C773.695503,804.316901 776.297726,802.319249 784.711581,802.319249 C793.819363,802.319249 800.845366,798.06338 803.274108,791.028169 C804.488479,787.467136 804.922183,765.92723 804.922183,713.553991 L804.922183,713.553991 L805.095664,641.030516 L799.197291,641.985915 C790.17625,643.375587 779.507135,648.760563 773.43528,654.92723 C766.669499,661.962441 760.337423,675.164319 758.515866,686.629108 C756.867792,697.312207 756.607569,697.746479 752.357271,697.746479 L752.117755,697.746756 C751.880721,697.747273 751.651112,697.748405 751.42872,697.74918 L750.782984,697.749466 C744.329785,697.721308 744.61132,696.417606 745.418009,664.915493 C745.43102,664.399577 745.444109,663.885616 745.457272,663.37393 L745.483693,662.353688 C745.90354,646.250904 746.393843,632.644718 746.805861,631.737089 C747.239565,630.521127 763.113128,630.086854 820.535523,630 L820.535523,630 Z M438.901586,637.56499 C436.381485,638.521372 435.686285,639.651642 436.120785,642.607734 C436.381485,645.824657 437.511186,646.694096 442.203786,648.085198 C452.371087,650.780458 452.110387,648.954636 452.110387,727.725782 C452.110387,766.154972 451.588987,801.541126 450.980687,806.409983 L449.850987,815.278257 L455.325688,815.278257 C460.105188,815.278257 461.408689,814.582706 464.189489,810.322457 C468.099989,804.497218 470.70699,804.236386 477.919691,808.670523 C490.085692,816.147696 497.819793,818.582124 509.290594,817.886573 C521.891096,817.017135 528.669297,814.061043 536.924798,805.192769 C550.220499,791.194806 555,776.849067 555,751.809233 C555,731.203536 552.7406,722.335262 544.658899,709.902288 C535.881998,696.339045 523.368396,689.731311 506.422894,689.731311 C495.299693,689.731311 487.913192,692.426571 481.482591,698.599586 L476.78999,702.946779 L476.78999,636 L459.583788,636.173888 C449.850987,636.173888 440.726486,636.695551 438.901586,637.56499 L438.901586,637.56499 Z M504.109601,701 C505.93379,701.086947 509.495302,702.391147 512.01442,703.782295 C514.446673,705.347336 518.095051,709.259938 520.092972,712.650859 C530.430044,730.301042 530.690642,773.687451 520.527303,794.119928 C513.317413,808.379188 499.331963,811.24843 488.386828,800.467038 C481.437536,793.685194 477.789158,784.121056 475.70437,767.253394 C473.880181,751.863826 475.70437,731.692189 479.960812,721.780264 C484.999048,709.955511 495.162388,701.173893 504.109601,701 Z M857,715 L876.543624,715.43573 L896,715.87146 L896,754.12854 L876.543624,754.56427 L857,755 L857,715 Z M761.319221,715.00059 C762.332876,715.002259 763.367825,715.007481 764.416107,715.016452 L764.416107,715.016452 L783,715.445786 L783,753.141332 L763.543624,753.570666 L744,754 L744.000274,734.833968 C744.012663,724.7224 744.443828,716.125255 744.959732,715.61752 C745.479315,715.252266 751.934777,715.011307 760.028308,715.000387 Z" id="by-T" fill="#EB138D"></path>
            <path d="M7.29575923,428.332601 C9.36470588,422.669003 13.829275,422.995749 15.24487,428.877178 C21.8872777,459.155648 26.1340629,471.354168 37.4588235,493.5729 C48.7835841,516.227295 58.6927497,530.059545 77.0954856,548.466241 C116.732148,588.220346 178.256088,616.538339 253.935978,630.152759 C262.756224,631.568658 273.863201,633.746965 278.654446,634.618288 C285.308832,635.853388 308.775489,638.125973 333.234891,640.128811 L335.566853,640.3187 C349.18157,641.421141 362.947688,642.427519 374.152668,643.113686 L374.152668,643.113686 L397.128865,644.311755 L397.673324,730.790549 L398,817.269342 L372.845964,816.071273 C194.154309,807.575876 69.9086183,732.751025 20.1450068,604.121988 C7.40465116,571.447381 0,530.168461 0,493.028324 C0,486.177548 0.465752558,477.45077 1.20894259,468.594561 L1.34293541,467.030712 L1.34293541,467.030712 L1.4824582,465.46631 C2.95197308,449.305299 5.27036936,433.397166 7.29575923,428.332601 Z M368.05411,3.5306074 C397.027261,-2.89350087 444.561338,-0.301316834 476.137546,9.27849375 C492.321768,14.3501582 513.825279,26.2967455 526.161504,36.890889 C533.970673,43.5404045 547.891367,61.6856928 558.190417,78.4785372 C558.529946,78.9293519 565.773234,71.716318 574.374639,62.587322 C616.476249,18.1820824 659.483271,0.0367941276 723.088393,0.0367941276 C780.242462,0.0367941276 821.551838,13.5612326 852.109459,42.6387753 C874.292028,63.4889513 889.231309,90.4251246 897.493185,124.461628 C906.619727,162.113665 906.984789,162.061731 906.999392,334.500788 L906.99999,351.178709 L906.99999,351.178709 L907,356.969266 L907,538.872963 L820.193722,539.436482 L733.387443,539.774593 L732.821561,375.565369 C732.029327,197.493596 732.482032,203.579593 721.956629,181.376973 C716.63734,169.768497 703.056175,156.131355 691.05948,150.496172 C671.366791,141.141769 639.224701,143.057731 621.229657,154.553504 C602.668732,166.500091 594.406857,182.053195 586.82404,219.583512 C586.258158,223.077325 585.126394,296.560108 584.447336,382.552995 L584.447336,382.552995 L583.315572,539.098371 L496.509294,539.661889 L409.589839,540 L409.589839,389.540622 C409.363486,228.825212 408.571252,210.56722 400.535729,186.899452 C389.670797,155.793244 370.883519,143.170435 338.175547,145.1991 C304.901694,147.002359 285.322181,160.977612 273.325485,190.618673 C261.894672,219.358105 260.649732,238.066911 260.649732,389.766029 L260.649732,389.766029 L260.649732,518.699009 L247.181743,517.571973 C233.600578,516.55764 228.620818,515.543307 204.51425,508.555681 C143.285832,490.748503 101.976456,451.189521 88.5084676,397.20447 C85.3248162,384.632378 85.0163314,373.863014 85.0006875,214.718469 L85,15.5898984 L169.88228,15.0263801 L254.990913,14.6882691 L255.330442,47.8231434 L255.896324,80.9580176 L262.007848,72.7306509 C277.399835,51.0915493 298.903346,32.4954465 323.009913,19.6472299 C337.496489,11.9833814 348.70095,7.9260499 368.05411,3.5306074 Z" id="M" fill="#FFFFFF"></path>
        </g>
    </g>
</svg>