<?xml version="1.0" encoding="UTF-8"?>
<svg width="1000px" height="1000px" viewBox="0 0 1000 1000" version="1.1" xmlns="http://www.w3.org/2000/svg" xmlns:xlink="http://www.w3.org/1999/xlink">
    <title>Artboard</title>
    <g id="Artboard" stroke="none" stroke-width="1" fill="none" fill-rule="evenodd">
        <path d="M745.799899,193 L752,409.509466 L719.081046,414.83359 C710.158398,291.510961 650.496046,224.071084 548.084903,222.287572 L548.084903,675.688251 C548.084903,758.197491 562.350535,771.53715 651.378688,772.415699 L651.378688,807 L348.64782,807 L348.64782,772.415699 C437.67401,771.53715 451.959278,758.197491 451.959278,675.688251 L451.959278,222.287572 C350.411143,224.071084 289.883819,291.510961 280.96019,414.83359 L248,409.509466 L254.293372,193 L745.799899,193 Z M752,493 L752,617 L628,617 L628,493 L752,493 Z M374,493 L374,617 L250,617 L250,493 L374,493 Z" id="Combined-Shape" fill="#E20074" fill-rule="nonzero"></path>
    </g>
</svg>