<?xml version="1.0" encoding="UTF-8"?>
<svg width="640px" height="640px" viewBox="0 0 640 640" version="1.1" xmlns="http://www.w3.org/2000/svg" xmlns:xlink="http://www.w3.org/1999/xlink">
    <title>Artboard</title>
    <defs>
        <linearGradient x1="0%" y1="0%" x2="100%" y2="100%" id="linearGradient-1">
            <stop stop-color="#E20074" offset="0%"></stop>
            <stop stop-color="#E20074" offset="100%"></stop>
        </linearGradient>
    </defs>
    <g id="Artboard" stroke="none" stroke-width="1" fill="none" fill-rule="evenodd">
        <g id="Group">
            <rect id="Rectangle-Copy-3" fill="#FFFFFF" transform="translate(320.000000, 320.000000) rotate(-360.000000) translate(-320.000000, -320.000000) " x="0" y="0" width="640" height="640" rx="240"></rect>
            <rect id="Rectangle-Copy-2" stroke="url(#linearGradient-1)" stroke-width="50" fill="#FFFFFF" transform="translate(320.000000, 320.000000) rotate(-360.000000) translate(-320.000000, -320.000000) " x="95" y="95" width="450" height="450" rx="120"></rect>
            <path d="M423.404323,193 L426,282.213184 L412.218454,284.407 C408.48298,233.59165 383.505289,205.802906 340.630783,205.068006 L340.630783,391.892716 C340.630783,425.890823 346.603101,431.387458 383.874808,431.749465 L383.874808,446 L257.13629,446 L257.13629,431.749465 C294.407175,431.387458 300.387714,425.890823 300.387714,391.892716 L300.387714,205.068006 C257.874506,205.802906 232.534694,233.59165 228.79881,284.407 L215,282.213184 L217.634725,193 L423.404323,193 Z M426,316.55814 L426,368.776163 L373.618881,368.776163 L373.618881,316.55814 L426,316.55814 Z M269.594406,316.55814 L269.594406,368.776163 L217.213287,368.776163 L217.213287,316.55814 L269.594406,316.55814 Z" id="Combined-Shape" fill="#E20074" fill-rule="nonzero"></path>
        </g>
    </g>
</svg>