<?xml version="1.0" encoding="UTF-8"?>
<svg width="866px" height="866px" viewBox="0 0 866 866" version="1.1" xmlns="http://www.w3.org/2000/svg" xmlns:xlink="http://www.w3.org/1999/xlink">
    <title>Artboard</title>
    <g id="Artboard" stroke="none" stroke-width="1" fill="none" fill-rule="evenodd">
        <rect id="Rectangle" fill="#FFFFFF" transform="translate(433.000000, 433.000000) rotate(-45.000000) translate(-433.000000, -433.000000) " x="83" y="83" width="700" height="700" rx="150"></rect>
        <path d="M652.464195,183 L658,373.415491 L628.608077,378.097945 C620.641427,269.638305 567.371469,210.32636 475.932949,208.757799 L475.932949,607.514097 C475.932949,680.079226 488.670121,691.811174 568.159543,692.583839 L568.159543,723 L297.864125,723 L297.864125,692.583839 C377.351794,691.811174 390.106498,680.079226 390.106498,607.514097 L390.106498,208.757799 C299.43852,210.32636 245.396267,269.638305 237.428741,378.097945 L208,373.415491 L213.619083,183 L652.464195,183 Z M658,447 L658,556 L547,556 L547,447 L658,447 Z M321,447 L321,556 L210,556 L210,447 L321,447 Z" id="Combined-Shape" fill="#E20074" fill-rule="nonzero"></path>
    </g>
</svg>