<?xml version="1.0" encoding="UTF-8"?>
<svg width="1000px" height="1000px" viewBox="0 0 1000 1000" version="1.1" xmlns="http://www.w3.org/2000/svg">
    <g id="Artboard" stroke="none" stroke-width="1" fill="none" fill-rule="evenodd">
        <path d="M695.079285,256 L700,428.079185 L673.873846,432.310736 C666.792379,334.295357 619.441306,280.694933 538.162621,279.277418 L538.162621,639.634962 C538.162621,705.212338 549.484552,715.814543 620.141816,716.512803 L620.141816,744 L379.879222,744 L379.879222,716.512803 C450.534928,715.814543 461.872443,705.212338 461.872443,639.634962 L461.872443,279.277418 C381.278685,280.694933 333.241126,334.295357 326.158881,432.310736 L300,428.079185 L304.99474,256 L695.079285,256 Z M700,494.04878 L700,592.66899 L601.276596,592.66899 L601.276596,494.04878 L700,494.04878 Z M400.425532,494.04878 L400.425532,592.66899 L301.702128,592.66899 L301.702128,494.04878 L400.425532,494.04878 Z" id="Combined-Shape" fill="#E20074" fill-rule="nonzero"></path>
    </g>
</svg>
