<?xml version="1.0" encoding="UTF-8"?>
<svg width="866px" height="866px" viewBox="0 0 866 866" version="1.1" xmlns="http://www.w3.org/2000/svg" xmlns:xlink="http://www.w3.org/1999/xlink">
    <title>Artboard</title>
    <defs>
        <linearGradient x1="50%" y1="0%" x2="50%" y2="100%" id="linearGradient-1">
            <stop stop-color="#E20074" offset="0%"></stop>
            <stop stop-color="#E20074" offset="100%"></stop>
        </linearGradient>
        <circle id="path-2" cx="433" cy="433" r="317"></circle>
        <filter x="-18.9%" y="-11.0%" width="133.1%" height="134.7%" filterUnits="objectBoundingBox" id="filter-3">
            <feMorphology radius="30" operator="dilate" in="SourceAlpha" result="shadowSpreadOuter1"></feMorphology>
            <feOffset dx="-15" dy="45" in="shadowSpreadOuter1" result="shadowOffsetOuter1"></feOffset>
            <feGaussianBlur stdDeviation="17.5" in="shadowOffsetOuter1" result="shadowBlurOuter1"></feGaussianBlur>
            <feComposite in="shadowBlurOuter1" in2="SourceAlpha" operator="out" result="shadowBlurOuter1"></feComposite>
            <feColorMatrix values="0 0 0 0 0   0 0 0 0 0   0 0 0 0 0  0 0 0 0.0826706253 0" type="matrix" in="shadowBlurOuter1"></feColorMatrix>
        </filter>
    </defs>
    <g id="Artboard" stroke="none" stroke-width="1" fill="none" fill-rule="evenodd">
        <g id="Oval">
            <use fill="black" fill-opacity="1" filter="url(#filter-3)" xlink:href="#path-2"></use>
            <circle stroke="url(#linearGradient-1)" stroke-width="30" fill-opacity="0.85" fill="#FFFFFF" fill-rule="evenodd" cx="433" cy="433" r="332"></circle>
        </g>
        <path d="M564.678517,271 L568,385.249295 L550.364846,388.058767 C545.584856,322.982983 513.622882,287.395816 458.759769,286.454679 L458.759769,525.708458 C458.759769,569.247536 466.402072,576.286704 514.095726,576.750304 L514.095726,595 L351.918475,595 L351.918475,576.750304 C399.611077,576.286704 407.263899,569.247536 407.263899,525.708458 L407.263899,286.454679 C352.863112,287.395816 320.43776,322.982983 315.657245,388.058767 L298,385.249295 L301.37145,271 L564.678517,271 Z M568,429 L568,495 L501,495 L501,429 L568,429 Z M367,429 L367,495 L300,495 L300,429 L367,429 Z" id="Combined-Shape" fill="#E20074" fill-rule="nonzero"></path>
    </g>
</svg>