<?xml version="1.0" encoding="UTF-8"?>
<svg width="490px" height="580px" viewBox="0 0 490 580" version="1.1" xmlns="http://www.w3.org/2000/svg" xmlns:xlink="http://www.w3.org/1999/xlink">
    <title>Artboard</title>
    <g id="Artboard" stroke="none" stroke-width="1" fill="none" fill-rule="evenodd">
        <rect id="Rectangle" x="-159" y="-60" width="700" height="700"></rect>
        <path d="M464.464195,20 L470,210.415491 L440.608077,215.097945 C432.641427,106.638305 379.371469,47.3263605 287.932949,45.757799 L287.932949,444.514097 C287.932949,517.079226 300.670121,528.811174 380.159543,529.583839 L380.159543,560 L109.864125,560 L109.864125,529.583839 C189.351794,528.811174 202.106498,517.079226 202.106498,444.514097 L202.106498,45.757799 C111.43852,47.3263605 57.3962672,106.638305 49.4287411,215.097945 L20,210.415491 L25.6190826,20 L464.464195,20 Z M470,284 L470,393 L359,393 L359,284 L470,284 Z M133,284 L133,393 L22,393 L22,284 L133,284 Z" id="Combined-Shape" fill="#E20074" fill-rule="nonzero"></path>
    </g>
</svg>