<?xml version="1.0" encoding="UTF-8"?>
<svg width="866px" height="866px" viewBox="0 0 866 866" version="1.1" xmlns="http://www.w3.org/2000/svg" xmlns:xlink="http://www.w3.org/1999/xlink">
    <title>Artboard</title>
    <defs>
        <linearGradient x1="0%" y1="0%" x2="100%" y2="100%" id="linearGradient-1">
            <stop stop-color="#E20074" offset="0%"></stop>
            <stop stop-color="#E20074" offset="100%"></stop>
        </linearGradient>
    </defs>
    <g id="Artboard" stroke="none" stroke-width="1" fill="none" fill-rule="evenodd">
        <rect id="Rectangle-Copy-3" fill="#FFFFFF" transform="translate(433.000000, 433.000000) rotate(-360.000000) translate(-433.000000, -433.000000) " x="133" y="133" width="600" height="600" rx="220"></rect>
        <g id="Group" transform="translate(233.000000, 233.000000)">
            <rect id="Rectangle-Copy-2" stroke="url(#linearGradient-1)" stroke-width="30" fill="#FFFFFF" transform="translate(200.000000, 200.000000) rotate(-360.000000) translate(-200.000000, -200.000000) " x="-15" y="-15" width="430" height="430" rx="120"></rect>
            <path d="M303.404323,73 L306,162.213184 L292.218454,164.407 C288.48298,113.59165 263.505289,85.8029059 220.630783,85.0680059 L220.630783,271.892716 C220.630783,305.890823 226.603101,311.387458 263.874808,311.749465 L263.874808,326 L137.13629,326 L137.13629,311.749465 C174.407175,311.387458 180.387714,305.890823 180.387714,271.892716 L180.387714,85.0680059 C137.874506,85.8029059 112.534694,113.59165 108.79881,164.407 L95,162.213184 L97.6347254,73 L303.404323,73 Z M306,196.55814 L306,248.776163 L253.618881,248.776163 L253.618881,196.55814 L306,196.55814 Z M149.594406,196.55814 L149.594406,248.776163 L97.2132867,248.776163 L97.2132867,196.55814 L149.594406,196.55814 Z" id="Combined-Shape" fill="#E20074" fill-rule="nonzero"></path>
        </g>
    </g>
</svg>