<?xml version="1.0" encoding="UTF-8"?>
<svg width="866px" height="866px" viewBox="0 0 866 866" version="1.1" xmlns="http://www.w3.org/2000/svg" xmlns:xlink="http://www.w3.org/1999/xlink">
    <title>Artboard</title>
    <defs>
        <linearGradient x1="50%" y1="0%" x2="50%" y2="100%" id="linearGradient-1">
            <stop stop-color="#E20074" offset="0%"></stop>
            <stop stop-color="#E20074" offset="100%"></stop>
        </linearGradient>
        <rect id="path-2" x="-5.68434189e-14" y="0" width="532" height="532" rx="150"></rect>
        <filter x="-23.5%" y="-14.1%" width="141.4%" height="143.2%" filterUnits="objectBoundingBox" id="filter-3">
            <feMorphology radius="35" operator="dilate" in="SourceAlpha" result="shadowSpreadOuter1"></feMorphology>
            <feOffset dx="-15" dy="45" in="shadowSpreadOuter1" result="shadowOffsetOuter1"></feOffset>
            <feGaussianBlur stdDeviation="17.5" in="shadowOffsetOuter1" result="shadowBlurOuter1"></feGaussianBlur>
            <feComposite in="shadowBlurOuter1" in2="SourceAlpha" operator="out" result="shadowBlurOuter1"></feComposite>
            <feColorMatrix values="0 0 0 0 0   0 0 0 0 0   0 0 0 0 0  0 0 0 0.0826706253 0" type="matrix" in="shadowBlurOuter1"></feColorMatrix>
        </filter>
    </defs>
    <g id="Artboard" stroke="none" stroke-width="1" fill="none" fill-rule="evenodd">
        <g id="Group" transform="translate(167.000000, 167.000000)">
            <g id="Rectangle-Copy-2" transform="translate(266.000000, 266.000000) rotate(-360.000000) translate(-266.000000, -266.000000) ">
                <use fill="black" fill-opacity="1" filter="url(#filter-3)" xlink:href="#path-2"></use>
                <rect stroke="url(#linearGradient-1)" stroke-width="35" fill="#FFFFFF" fill-rule="evenodd" x="-17.5" y="-17.5" width="567" height="567" rx="150"></rect>
            </g>
            <path d="M402.555499,98 L406,216.756929 L387.711692,219.677248 C382.754666,152.033939 349.608914,115.042703 292.713835,114.064434 L292.713835,362.757821 C292.713835,408.014705 300.639186,415.3316 350.099271,415.81349 L350.099271,434.783217 L181.915455,434.783217 L181.915455,415.81349 C231.37445,415.3316 239.31071,408.014705 239.31071,362.757821 L239.31071,114.064434 C182.895079,115.042703 149.268788,152.033939 144.311217,219.677248 L126,216.756929 L129.496318,98 L402.555499,98 Z M406,262.475524 L406,331.986014 L336.48951,331.986014 L336.48951,262.475524 L406,262.475524 Z M198.447552,262.475524 L198.447552,331.986014 L128.937063,331.986014 L128.937063,262.475524 L198.447552,262.475524 Z" id="Combined-Shape" fill="#E20074" fill-rule="nonzero"></path>
        </g>
    </g>
</svg>