<?xml version="1.0" encoding="UTF-8"?>
<svg width="1000px" height="1000px" viewBox="0 0 1000 1000" version="1.1" xmlns="http://www.w3.org/2000/svg" xmlns:xlink="http://www.w3.org/1999/xlink">
    <title>Artboard</title>
    <g id="Artboard" stroke="none" stroke-width="1" fill="none" fill-rule="evenodd">
        <rect id="Rectangle" x="0" y="0" width="1000" height="1000"></rect>
        <path d="M695.079285,256 L700,428.079185 L673.873846,432.310736 C666.792379,334.295357 619.441306,280.694933 538.162621,279.277418 L538.162621,639.634962 C538.162621,705.212338 549.484552,715.814543 620.141816,716.512803 L620.141816,744 L379.879222,744 L379.879222,716.512803 C450.534928,715.814543 461.872443,705.212338 461.872443,639.634962 L461.872443,279.277418 C381.278685,280.694933 333.241126,334.295357 326.158881,432.310736 L300,428.079185 L304.99474,256 L695.079285,256 Z M700,494.04878 L700,592.66899 L601.276596,592.66899 L601.276596,494.04878 L700,494.04878 Z M400.425532,494.04878 L400.425532,592.66899 L301.702128,592.66899 L301.702128,494.04878 L400.425532,494.04878 Z" id="Combined-Shape" fill="#E20074" fill-rule="nonzero"></path>
        <g id="Free-Wifi-2" transform="translate(375.000000, 770.000000)" fill="#0A0A0A" stroke="#FF0000">
            <path d="M125,0.5 C143.49693,0.5 160.815083,5.547067 175.652222,14.3394961 C190.846646,23.3436508 203.439253,36.2753901 212.031607,51.736343 L212.450951,52.4987508 L215,52.5 C224.526912,52.5 233.151912,56.361544 239.395184,62.604816 C245.52284,68.7324719 249.356163,77.1544604 249.496037,86.4716644 L249.5,87 L249.5,115 C249.5,124.526912 245.638456,133.151912 239.395184,139.395184 C233.267528,145.52284 224.84554,149.356163 215.528215,149.496037 L214.999873,149.5 L211.332365,149.500935 C194.163963,179.378755 161.931813,199.5 125,199.5 C88.437505,199.5 56.48115,179.779168 39.1871958,150.394332 L38.667635,149.500935 L35,149.5 C25.4730881,149.5 16.8480881,145.638456 10.604816,139.395184 C4.47716018,133.267528 0.643836929,124.84554 0.503963384,115.528336 L0.5,115 L0.5,87 C0.5,77.4730881 4.36154403,68.8480881 10.604816,62.604816 C16.7324719,56.4771602 25.1544604,52.6438369 34.4718961,52.5039633 L35.0002451,52.4999999 L37.549049,52.4987508 C46.1485741,36.7004371 58.9042647,23.4912599 74.3477779,14.3394961 C89.1849172,5.547067 106.50307,0.5 125,0.5 Z M216,57.5 L168.365725,57.5 L168.074656,57.5012355 L168.074656,57.5012355 L167.783608,57.5049419 C158.419443,57.6639469 149.99593,61.562508 143.912069,67.7532633 C137.817851,73.9545572 134.071328,82.4558762 134.078492,91.8024268 L134.078492,91.8024268 L134.083471,92.3652107 L134.556889,120.246832 L134.559058,120.669197 C134.533442,124.46708 133.288295,128.170988 130.738385,131.606155 C128.313273,134.726973 125.277035,137.332911 121.818974,139.2614 L121.818974,139.2614 L121.317894,139.534549 L120.369865,140.039628 L120.208824,140.133721 C119.895895,140.333453 119.638744,140.601053 119.452542,140.911242 C119.235306,141.27313 119.11464,141.692987 119.11464,142.130675 C119.11464,142.765031 119.362954,143.341183 119.790934,143.769164 C120.200435,144.178665 120.777863,144.454605 121.466761,144.5 L121.466761,144.5 L216,144.5 L216.497603,144.495743 C224.111876,144.365367 230.998679,141.247909 236.038111,136.208477 C241.15875,131.087838 244.372555,123.982026 244.499936,116.007986 L244.499936,116.007986 L244.5,86 L244.49568,85.4986795 C244.363366,77.8276415 241.200295,70.8952086 236.152543,65.8474567 C230.995058,60.6899712 223.870058,57.5 216,57.5 L216,57.5 Z M197.27,69.78 L197.27,81.74 L168.56,81.74 L168.56,95.7 L195.11,95.7 L195.11,107.66 L168.56,107.66 L168.56,132.5 L155.52,132.5 L155.52,69.78 L197.27,69.78 Z M219.32,89.76 L219.32,132.5 L206.82,132.5 L206.82,89.76 L219.32,89.76 Z M102.847119,67.78 L87.5732478,67.78 L77.0233636,108.410133 L64.2065621,67.78 L50.4286145,67.78 L37.3576208,107.341541 L27.5108056,67.78 L11.1501641,67.78 L30.3467743,132.5 L43.1441262,132.5 L56.9969672,89.5386578 L70.6744557,132.5 L83.9247459,132.5 L102.847119,67.78 Z M120.95,87.76 L106.45,87.76 L106.45,132.5 L120.95,132.5 L120.95,87.76 Z M213.07,68.16 C215.092028,68.1600991 216.819177,68.8762836 218.251447,70.3085534 C219.683816,71.7407822 220.4,73.467931 220.4,75.49 C220.399901,77.5120279 219.683716,79.2391768 218.251447,80.6714466 C216.819218,82.1038155 215.092069,82.82 213.07,82.82 C211.047972,82.8199009 209.320823,82.1037164 207.888553,80.6714466 C206.456184,79.2392178 205.74,77.512069 205.74,75.49 C205.740099,73.4679721 206.456284,71.7408232 207.888553,70.3085534 C209.320782,68.8761845 211.047931,68.16 213.07,68.16 Z M113.7,66.16 C111.402069,66.16 109.439218,66.9738155 107.811447,68.6014466 C106.183716,70.2291768 105.369901,72.1920279 105.37,74.49 C105.37,76.787931 106.183816,78.7507822 107.811447,80.3785534 C109.439177,82.0062836 111.402028,82.8200991 113.7,82.82 C115.997931,82.82 117.960782,82.0061845 119.588553,80.3785534 C121.216284,78.7508232 122.030099,76.7879721 122.03,74.49 C122.03,72.192069 121.216184,70.2292178 119.588553,68.6014466 C117.960823,66.9737164 115.997972,66.1599009 113.7,66.16 Z M104.46875,19.65625 L90.375,19.65625 L90.375,43.5 L96.140625,43.5 L96.140625,34.46875 L103.890625,34.46875 L103.890625,29.515625 L96.140625,29.515625 L96.140625,24.625 L104.46875,24.625 L104.46875,19.65625 Z M115.101502,19.6563101 L107.9375,19.65625 L107.9375,43.5 L113.78125,43.5 L113.78125,34.734375 L115.581569,34.734375 L121.034694,43.5 L127.64773,43.5 L127.494374,43.2818566 C127.346341,43.0709945 127.214278,42.8819764 127.098185,42.7148021 C126.090234,41.263353 123.959869,38.1087391 120.707089,33.2509606 C121.894723,32.6434254 122.831609,31.8512515 123.517746,30.8744386 C124.316832,29.7433389 124.717166,28.4518593 124.71875,27 C124.71875,24.5104722 123.908033,22.6615522 122.286599,21.45324 C120.800797,20.3259009 118.405765,19.7269243 115.101502,19.6563101 L115.101502,19.6563101 Z M143.21875,19.65625 L129.0625,19.65625 L129.0625,43.5 L143.21875,43.5 L143.21875,38.5 L134.90625,38.5 L134.90625,33.609375 L142.640625,33.609375 L142.640625,28.640625 L134.90625,28.640625 L134.90625,24.625 L143.21875,24.625 L143.21875,19.65625 Z M161.140625,19.65625 L146.984375,19.65625 L146.984375,43.5 L161.140625,43.5 L161.140625,38.5 L152.828125,38.5 L152.828125,33.609375 L160.5625,33.609375 L160.5625,28.640625 L152.828125,28.640625 L152.828125,24.625 L161.140625,24.625 L161.140625,19.65625 Z M114.75,24.625 C116.194194,24.610256 117.26049,24.814699 117.948889,25.2383292 C118.535046,25.6260088 118.828125,26.2548991 118.828125,27.125 C118.846178,28.0325609 118.552684,28.6981056 117.947644,29.121634 C117.325026,29.5371669 116.395553,29.7609154 115.159225,29.7928795 L114.84375,29.796875 L113.78125,29.796875 L113.78125,24.625 L114.75,24.625 L114.75,24.625 Z" id="Free-Wifi"></path>
        </g>
    </g>
</svg>